<svg id="Layer_1" data-name="Layer 1" xmlns="http://www.w3.org/2000/svg" viewBox="0 0 130.21277 130.21277">
  <defs>
    <style>
      .cls-1 {
        fill: #5d534a;
        fill-rule: evenodd;
      }
    </style>
  </defs>
  <title>Union2</title>
  <path class="cls-1" d="M49.21277,47h32a2,2,0,0,1,2,2V70.2667l-12.6547-2.9528A11.99855,11.99855,0,0,0,67.83137,67h-5.2372a11.99855,11.99855,0,0,0-2.7267.3139l-12.6547,2.9528V49A2,2,0,0,1,49.21277,47Zm-4,2a4,4,0,0,1,4-4h32a4,4,0,0,1,4,4V81a4.00006,4.00006,0,0,1-4,4h-32a4,4,0,0,1-4-4Zm14.5455,6.9091a3.63637,3.63637,0,1,1-3.6364-3.63637A3.63644,3.63644,0,0,1,59.75827,55.9091Z"/>
</svg>
