<?xml version="1.0" standalone="no"?>
<!DOCTYPE svg PUBLIC "-//W3C//DTD SVG 20010904//EN"
 "http://www.w3.org/TR/2001/REC-SVG-20010904/DTD/svg10.dtd">
<svg version="1.0" xmlns="http://www.w3.org/2000/svg"
 width="953.000000pt" height="953.000000pt" viewBox="0 0 953.000000 953.000000"
 preserveAspectRatio="xMidYMid meet">
<metadata>
Created by potrace 1.14, written by Peter Selinger 2001-2017
</metadata>
<g transform="translate(0.000000,953.000000) scale(0.100000,-0.100000)"
fill="#000000" stroke="none">
<path d="M4325 8824 c-731 -71 -1292 -317 -1724 -755 -383 -388 -636 -935
-716 -1544 -14 -109 -17 -264 -6 -297 15 -46 70 -105 117 -124 38 -16 55 -16
844 -29 465 -7 1007 -16 1131 -18 99 -3 109 -5 143 -31 49 -37 68 -68 73 -120
5 -38 -4 -65 -72 -217 -42 -96 -95 -212 -116 -257 -21 -46 -39 -85 -39 -87 0
-2 -36 -84 -81 -182 -95 -210 -112 -246 -114 -253 -4 -13 -26 -61 -53 -120
-17 -36 -48 -105 -70 -155 -22 -49 -51 -115 -65 -145 -72 -158 -174 -385 -209
-465 -22 -49 -51 -115 -65 -145 -14 -30 -29 -64 -34 -75 -4 -11 -29 -64 -54
-118 -25 -54 -45 -100 -45 -102 0 -2 -13 -32 -29 -67 -16 -35 -70 -155 -121
-268 -209 -466 -263 -587 -281 -624 -11 -22 -19 -45 -19 -52 0 -7 -19 -31 -42
-54 -39 -39 -60 -48 -238 -107 -186 -62 -455 -164 -578 -220 -190 -86 -253
-116 -397 -189 -261 -132 -573 -321 -805 -487 -85 -61 -301 -226 -310 -237 -3
-3 -17 -15 -32 -26 -60 -46 -147 -123 -210 -185 -74 -73 -95 -121 -84 -197 15
-112 99 -183 212 -178 64 3 102 19 149 63 17 16 87 77 158 136 536 451 1164
805 1887 1065 111 40 488 157 538 167 9 2 53 12 97 24 85 21 253 60 295 67 14
2 48 9 75 14 28 6 61 12 75 15 21 4 114 20 240 40 14 2 50 7 80 10 30 3 62 8
70 10 15 4 108 14 179 20 20 1 63 5 96 9 65 6 185 16 280 21 96 6 603 6 685 0
157 -11 216 -16 260 -20 128 -11 168 -16 200 -20 19 -3 53 -7 75 -10 37 -4
211 -29 280 -41 208 -34 631 -134 845 -200 187 -58 444 -146 505 -173 11 -5
36 -15 55 -22 110 -39 393 -166 575 -257 328 -164 620 -341 871 -527 111 -83
306 -246 334 -280 59 -72 188 -93 265 -43 52 33 74 58 91 105 26 75 8 170 -43
220 -39 38 -190 170 -243 213 -30 25 -57 47 -60 50 -18 18 -263 201 -365 271
-124 86 -287 188 -430 269 -230 129 -232 131 -256 173 l-22 40 0 661 c0 613 1
664 18 696 9 19 268 286 574 592 306 307 564 573 574 592 27 51 24 134 -6 193
-47 90 -180 132 -271 86 -21 -11 -288 -270 -599 -580 -320 -320 -575 -566
-591 -573 -21 -8 -444 -11 -1455 -11 -938 0 -1440 -4 -1467 -11 -85 -20 -154
-111 -154 -200 1 -84 60 -168 138 -196 28 -10 126 -13 402 -14 417 0 425 -1
476 -78 27 -40 28 -45 29 -193 1 -175 -5 -210 -48 -254 -44 -47 -83 -57 -191
-48 -436 34 -975 38 -1271 10 -22 -2 -69 -7 -105 -10 -36 -3 -90 -8 -120 -11
-62 -6 -394 -51 -425 -57 -119 -25 -177 -15 -224 38 -36 42 -52 93 -41 137 8
37 38 110 98 238 22 47 54 119 72 160 31 70 56 126 117 260 14 30 43 96 65
145 22 50 51 115 65 145 14 30 41 91 60 135 20 44 49 109 65 145 16 36 66 146
110 245 44 99 85 186 90 192 6 7 8 13 5 13 -3 0 10 32 29 70 19 39 34 72 34
75 0 2 13 32 29 67 16 35 49 108 74 163 25 55 56 125 70 155 30 66 41 90 152
340 48 107 99 220 112 250 14 30 34 75 46 100 11 25 34 77 51 115 40 89 53
108 98 135 41 24 62 24 573 15 430 -8 869 -15 1250 -21 209 -3 440 -7 513 -8
82 -1 146 2 168 10 54 19 102 61 125 111 19 43 21 58 15 172 -3 70 -8 140 -11
156 -2 17 -9 66 -15 110 -64 456 -258 949 -507 1286 -142 193 -360 409 -523
519 -19 13 -37 27 -40 30 -18 22 -383 220 -406 220 -3 0 -20 6 -37 14 -90 41
-366 124 -467 140 -19 3 -46 8 -60 11 -25 5 -58 11 -115 20 -16 2 -55 7 -85
11 -30 3 -71 8 -90 11 -84 12 -591 10 -725 -3z m715 -418 c19 -3 51 -8 70 -10
45 -6 158 -24 190 -31 14 -3 34 -7 45 -9 103 -20 294 -83 417 -137 270 -119
520 -304 687 -509 20 -25 44 -54 54 -65 35 -38 149 -217 198 -309 91 -173 181
-418 224 -606 33 -149 29 -189 -23 -247 -46 -49 -78 -53 -393 -48 -156 3 -430
7 -609 10 -179 3 -446 8 -595 10 -148 3 -423 7 -610 10 -187 3 -477 7 -645 10
-168 3 -435 7 -595 10 -787 12 -982 16 -1000 21 -37 11 -87 56 -102 93 -21 48
-18 85 12 200 215 806 750 1339 1536 1531 66 16 139 32 162 35 23 4 44 8 47
10 3 1 30 6 61 9 31 4 67 9 79 11 12 2 61 7 108 11 48 3 89 8 91 10 6 5 551
-4 591 -10z m2505 -5078 c45 -16 94 -68 104 -108 12 -46 12 -745 0 -791 -13
-50 -74 -104 -127 -113 -31 -4 -58 -1 -99 14 -294 106 -549 185 -808 249 -133
33 -375 86 -435 96 -13 2 -15 47 -16 332 l-1 330 676 1 c467 1 685 -3 706 -10z"/>
</g>
</svg>
